<svg xmlns="http://www.w3.org/2000/svg" viewbox="0 0 31 31" width="31" height="31"><defs></defs><g transform="matrix(1, 0, 0, 1, 0, 0)">
<g transform="matrix(1, 0, 0, 1, 0, 0)">
	<g class="artboard" transform="matrix(1, 0, 0, 1, 0, 0)">
		<g transform="matrix(1, 0, 0, 1, 0, 0)">
			<path class="vector-data" d="M14.874795,10.011220C14.874795,10.011220 19.550647,10.011220 19.550647,10.011220 C19.550647,10.011220 19.550647,21.278809 19.550647,21.278809 C19.550647,21.278809 14.874795,21.278809 14.874795,21.278809 C14.874795,21.278809 14.874795,10.011220 14.874795,10.011220 L 14.874795,10.011220 ZM14.874795,10.011220C14.874795,10.011220 19.550647,10.011220 19.550647,10.011220 C19.550647,10.011220 19.550647,21.278809 19.550647,21.278809 C19.550647,21.278809 14.874795,21.278809 14.874795,21.278809 C14.874795,21.278809 14.874795,10.011220 14.874795,10.011220 L 14.874795,10.011220 Z" fill="#2F2F2F" stroke="#000000" stroke-width="0" stroke-dasharray="none" stroke-dashoffset="0" stroke-linecap="butt" stroke-linejoin="miter" stroke-miterlimit="4" />
			<path class="vector-data" d="M19.550647,10.950936C19.550647,10.950936 24.189016,10.950936 24.189016,10.950936 C24.189016,10.950936 24.189016,20.339094 24.189016,20.339094 C24.189016,20.339094 19.550647,20.339094 19.550647,20.339094 C19.550647,20.339094 19.550647,10.950936 19.550647,10.950936 L 19.550647,10.950936 ZM19.550647,10.950936C19.550647,10.950936 24.189016,10.950936 24.189016,10.950936 C24.189016,10.950936 24.189016,20.339094 24.189016,20.339094 C24.189016,20.339094 19.550647,20.339094 19.550647,20.339094 C19.550647,20.339094 19.550647,10.950936 19.550647,10.950936 L 19.550647,10.950936 Z" fill="#D4D07D" stroke="#000000" stroke-width="2" stroke-dasharray="none" stroke-dashoffset="0" stroke-linecap="butt" stroke-linejoin="miter" stroke-miterlimit="4" />
			<path class="vector-data" d="M7.685691,10.978198C7.685691,10.978198 14.537480,10.978198 14.537480,10.978198 C14.537480,10.978198 14.537480,20.366357 14.537480,20.366357 C14.537480,20.366357 7.685691,20.366357 7.685691,20.366357 C7.685691,20.366357 7.685691,10.978198 7.685691,10.978198 L 7.685691,10.978198 ZM7.685691,10.978198C7.685691,10.978198 14.537480,10.978198 14.537480,10.978198 C14.537480,10.978198 14.537480,20.366357 14.537480,20.366357 C14.537480,20.366357 7.685691,20.366357 7.685691,20.366357 C7.685691,20.366357 7.685691,10.978198 7.685691,10.978198 L 7.685691,10.978198 Z" fill="#D4D07D" stroke="#000000" stroke-width="2" stroke-dasharray="none" stroke-dashoffset="0" stroke-linecap="butt" stroke-linejoin="miter" stroke-miterlimit="4" />
			<g transform="matrix(1, 0, 0, 1, 0, 0)">
				<path class="vector-data" d="M10.734604,10.978198C10.734604,10.978198 7.685691,10.978198 7.685691,10.978198 C7.685691,10.978198 7.685691,20.366357 7.685691,20.366357 C7.685691,20.366357 10.734604,20.366357 10.734604,20.366357 C10.734604,20.366357 10.734604,10.978198 10.734604,10.978198 L 10.734604,10.978198 ZM10.734604,10.978198C10.734604,10.978198 7.685691,10.978198 7.685691,10.978198 C7.685691,10.978198 7.685691,20.366357 7.685691,20.366357 C7.685691,20.366357 10.734604,20.366357 10.734604,20.366357 C10.734604,20.366357 10.734604,10.978198 10.734604,10.978198 L 10.734604,10.978198 Z" fill="#FFFFFF" stroke="#000000" stroke-width="2" stroke-dasharray="none" stroke-dashoffset="0" stroke-linecap="round" stroke-linejoin="miter" stroke-miterlimit="4" />
				<path class="vector-data" d="M9.238911,18.038966C9.238911,18.038966 10.734604,18.028248 10.734604,18.028248 " fill="none" stroke="#000000" stroke-width="0.5" stroke-dasharray="none" stroke-dashoffset="0" stroke-linecap="butt" stroke-linejoin="miter" stroke-miterlimit="4" />
				<path class="vector-data" d="M9.238911,18.799760C9.238911,18.799760 10.734604,18.789041 10.734604,18.789041 " fill="none" stroke="#000000" stroke-width="0.5" stroke-dasharray="none" stroke-dashoffset="0" stroke-linecap="butt" stroke-linejoin="miter" stroke-miterlimit="4" />
				<path class="vector-data" d="M9.238911,16.493293C9.238911,16.493293 10.734604,16.482574 10.734604,16.482574 " fill="none" stroke="#000000" stroke-width="0.5" stroke-dasharray="none" stroke-dashoffset="0" stroke-linecap="butt" stroke-linejoin="miter" stroke-miterlimit="4" />
				<path class="vector-data" d="M9.238911,17.276216C9.238911,17.276216 10.734604,17.265498 10.734604,17.265498 " fill="none" stroke="#000000" stroke-width="0.5" stroke-dasharray="none" stroke-dashoffset="0" stroke-linecap="butt" stroke-linejoin="miter" stroke-miterlimit="4" />
				<path class="vector-data" d="M9.238911,14.111003C9.238911,14.111003 10.734604,14.100284 10.734604,14.100284 " fill="none" stroke="#000000" stroke-width="0.5" stroke-dasharray="none" stroke-dashoffset="0" stroke-linecap="butt" stroke-linejoin="miter" stroke-miterlimit="4" />
				<path class="vector-data" d="M9.238911,14.889054C9.238911,14.889054 10.734604,14.878336 10.734604,14.878336 " fill="none" stroke="#000000" stroke-width="0.5" stroke-dasharray="none" stroke-dashoffset="0" stroke-linecap="butt" stroke-linejoin="miter" stroke-miterlimit="4" />
				<path class="vector-data" d="M9.238911,15.707938C9.238911,15.707938 10.734604,15.697220 10.734604,15.697220 " fill="none" stroke="#000000" stroke-width="0.5" stroke-dasharray="none" stroke-dashoffset="0" stroke-linecap="butt" stroke-linejoin="miter" stroke-miterlimit="4" />
				<path class="vector-data" d="M9.238911,12.549553C9.238911,12.549553 10.734604,12.538834 10.734604,12.538834 " fill="none" stroke="#000000" stroke-width="0.5" stroke-dasharray="none" stroke-dashoffset="0" stroke-linecap="butt" stroke-linejoin="miter" stroke-miterlimit="4" />
				<path class="vector-data" d="M9.238911,13.322201C9.238911,13.322201 10.734604,13.311482 10.734604,13.311482 " fill="none" stroke="#000000" stroke-width="0.5" stroke-dasharray="none" stroke-dashoffset="0" stroke-linecap="butt" stroke-linejoin="miter" stroke-miterlimit="4" />
			</g>
			<path class="vector-data" d="M15.675371,10.004795C15.675371,10.004795 15.675371,21.285233 15.675371,21.285233 " fill="none" stroke="#444444" stroke-width="0.2" stroke-dasharray="none" stroke-dashoffset="0" stroke-linecap="butt" stroke-linejoin="miter" stroke-miterlimit="4" />
			<path class="vector-data" d="M16.083815,10.004795C16.083815,10.004795 16.099558,21.285233 16.099558,21.285233 " fill="none" stroke="#444444" stroke-width="0.2" stroke-dasharray="none" stroke-dashoffset="0" stroke-linecap="butt" stroke-linejoin="miter" stroke-miterlimit="4" />
			<path class="vector-data" d="M16.513115,21.285233C16.513115,21.285233 16.529421,10.004795 16.529421,10.004795 " fill="none" stroke="#444444" stroke-width="0.2" stroke-dasharray="none" stroke-dashoffset="0" stroke-linecap="butt" stroke-linejoin="miter" stroke-miterlimit="4" />
			<path class="vector-data" d="M16.981019,10.004795C16.981019,10.004795 16.981019,21.285233 16.981019,21.285233 " fill="none" stroke="#444444" stroke-width="0.2" stroke-dasharray="none" stroke-dashoffset="0" stroke-linecap="butt" stroke-linejoin="miter" stroke-miterlimit="4" />
			<path class="vector-data" d="M17.398603,21.285233C17.398603,21.285233 17.420970,10.004795 17.420970,10.004795 " fill="none" stroke="#444444" stroke-width="0.2" stroke-dasharray="none" stroke-dashoffset="0" stroke-linecap="butt" stroke-linejoin="miter" stroke-miterlimit="4" />
			<path class="vector-data" d="M17.859432,10.004795C17.859432,10.004795 17.892338,21.285233 17.892338,21.285233 " fill="none" stroke="#444444" stroke-width="0.2" stroke-dasharray="none" stroke-dashoffset="0" stroke-linecap="butt" stroke-linejoin="miter" stroke-miterlimit="4" />
			<path class="vector-data" d="M18.270177,21.285233C18.270177,21.285233 18.259832,10.004795 18.259832,10.004795 " fill="none" stroke="#444444" stroke-width="0.2" stroke-dasharray="none" stroke-dashoffset="0" stroke-linecap="butt" stroke-linejoin="miter" stroke-miterlimit="4" />
		</g>
	</g>
</g></g></svg>